<?xml version="1.0" encoding="UTF-8"?><svg id="Layer_2" xmlns="http://www.w3.org/2000/svg" viewBox="0 0 277.3 172.58"><defs><style>.cls-1{fill:#eb652d;}</style></defs><g id="Camada_1"><g><path class="cls-1" d="M39.84,67.99c.3,.03,.48,.06,.72,.06,12.26,0,24.54,.06,36.83-.03,5.6-.03,11.05-.96,16.11-3.64,3.7-1.96,6.08-5,7.2-9.03,.93-3.43,1.02-6.9,.6-10.39-.78-6.59-4.64-11.11-10.99-12.89-5.6-1.53-11.35-2.05-17.14-2.08-10.78-.06-21.53-.03-32.28-.03-.36,0-.69,.03-1.05,.06v37.97Zm0,74.59c.36,0,.63,.06,.9,.06,12.11,0,24.21,.06,36.29-.06,3.67-.06,7.38-.39,10.99-1.11,8.64-1.72,14.18-6.96,16.23-15.69,.75-3.19,.87-6.41,.75-9.67-.36-8.34-4.85-14.49-12.68-17.29-4.01-1.42-8.22-2.05-12.44-2.11-13.19-.09-26.35-.06-39.54-.06-.15,0-.3,.06-.51,.06v45.86ZM0,172.55V.09C.3,.09,.57,.03,.84,.03,28.79,.03,56.73-.06,84.68,.09c9.22,0,18.22,1.45,26.71,5.24,13.85,6.2,21.8,16.9,23.97,31.83,1.17,8.01,.72,15.87-2.02,23.55-2.77,7.74-8.1,13.34-15.15,17.41-1.05,.6-2.11,1.21-3.28,1.87,.57,.21,1.02,.42,1.48,.6,13.43,5.42,21.44,15.36,24.06,29.48,2.14,11.5,1.15,22.77-4.13,33.37-7.65,15.33-19.94,24.51-36.92,27.37-7.29,1.21-14.61,1.81-21.98,1.78-25.3-.03-50.62-.03-75.92-.03H0Z"/><path class="cls-1" d="M243.66,93.14c.03-.24,.06-.39,.03-.57-.12-1.17-.24-2.38-.42-3.55-1.6-9.49-6.72-16.26-15.66-19.94-4.67-1.93-9.52-2.35-14.48-2.02-10.27,.66-17.65,5.66-21.86,15.06-1.11,2.5-1.78,5.21-2.59,7.86-.3,1.02-.39,2.05-.6,3.16h55.59Zm33.61,21.38h-90.01c.18,1.84,.33,3.58,.54,5.3,.45,3.49,1.35,6.87,2.86,10.06,4.04,8.4,10.96,12.92,19.85,14.67,5.03,1.02,10.06,1.02,15.09-.03,7.41-1.6,12.83-5.81,16.47-12.47,.42-.69,.84-.96,1.66-.96,10.24,.03,20.45,.03,30.69,.03h1.29c-.39,1.72-.69,3.34-1.17,4.91-1.87,6.26-5.57,11.44-9.82,16.26-9.27,10.54-21.08,16.26-34.81,18.28-10.81,1.6-21.59,1.35-32.19-1.72-11.05-3.16-20.81-8.61-28.76-16.95-6.41-6.75-10.09-15.03-11.99-24.03-3.37-15.84-3.43-31.74,1.39-47.31,6.84-21.98,22.07-34.87,44.54-39.06,13.91-2.62,27.61-1.38,40.8,4.04,12.26,5.03,20.75,14,26.65,25.63,3.85,7.5,5.93,15.57,6.44,23.97,.39,6.14,.36,12.32,.51,18.49,0,.27,0,.51-.03,.9"/><rect class="cls-1" x="181.03" y="7.21" width="69.32" height="19.87"/></g></g></svg>