<?xml version="1.0" encoding="UTF-8"?><svg id="Layer_2" xmlns="http://www.w3.org/2000/svg" viewBox="0 0 180.28 180.28"><defs><style>.cls-1{fill:#eb652d;}</style></defs><g id="Camada_1"><g><path class="cls-1" d="M180.23,180.28h0s.05,0,.05,0V114.15c0-32.34-6.96-57.26-44.78-57.26-18.18,0-30.38,9.98-35.36,19.43h-.53v-16.41H63.77v120.36h37.33v-59.6c0-15.69,2.97-30.86,22.41-30.86s19.43,17.91,19.43,31.87v58.6h37.29Z"/><path class="cls-1" d="M2.97,59.92H40.35v120.36H2.97V59.92Z"/><path class="cls-1" d="M21.65,0C9.7,0,0,9.7,0,21.65s9.7,21.85,21.65,21.85,21.65-9.9,21.65-21.85c0-11.95-9.7-21.65-21.65-21.65Z"/></g></g></svg>