<?xml version="1.0" encoding="UTF-8"?><svg id="Layer_2" xmlns="http://www.w3.org/2000/svg" viewBox="0 0 497.19 59"><defs><style>.cls-1{fill:#eb652d;}</style></defs><g id="lettering"><g><path class="cls-1" d="M0,0H10.3V43.47c0,4.58,1.55,5.72,4.25,5.72,.82,0,1.55-.08,1.55-.08v9.07s-1.55,.25-3.27,.25c-5.72,0-12.83-1.47-12.83-13.4V0Z"/><path class="cls-1" d="M22.96,16.34h10.38v24.68c0,5.07,1.31,8.5,6.46,8.5,7.52,0,11.69-6.62,11.69-14.05V16.34h10.38V58.01h-9.97v-4.74c0-1.63,.16-2.94,.16-2.94h-.16c-2.04,4.33-7.35,8.66-14.46,8.66-8.91,0-14.46-4.49-14.46-15.85V16.34Z"/><path class="cls-1" d="M90.21,15.36c10.87,0,16.02,6.21,16.02,6.21l-4.58,7.11s-4.33-4.49-10.87-4.49c-7.68,0-12.67,5.8-12.67,12.91s5.07,13.07,12.99,13.07c7.03,0,12.26-5.31,12.26-5.31l4,7.35s-5.96,6.78-17.16,6.78c-13.81,0-22.63-9.72-22.63-21.82s8.82-21.82,22.63-21.82Z"/><path class="cls-1" d="M136.04,31.87h1.39v-.57c0-5.47-3.43-7.35-8.01-7.35-5.96,0-11.44,4-11.44,4l-3.92-7.44s6.46-5.15,16.34-5.15c10.95,0,17.32,6.05,17.32,16.59v26.07h-9.56v-3.43c0-1.63,.16-2.94,.16-2.94h-.16c.08,0-3.19,7.35-12.67,7.35-7.44,0-14.14-4.66-14.14-12.99,0-13.24,17.9-14.14,24.68-14.14Zm-7.93,19.04c5.47,0,9.4-5.88,9.4-10.95v-.98h-1.8c-5.31,0-13.89,.74-13.89,6.54,0,2.78,2.04,5.39,6.29,5.39Z"/><path class="cls-1" d="M159.49,45.59s4.58,4.58,11.36,4.58c2.94,0,5.48-1.31,5.48-3.76,0-6.21-20.26-5.39-20.26-18.79,0-7.76,6.95-12.26,15.93-12.26s13.97,4.74,13.97,4.74l-3.84,7.68s-3.84-3.59-10.21-3.59c-2.7,0-5.31,1.14-5.31,3.76,0,5.88,20.26,5.15,20.26,18.55,0,6.95-6.05,12.5-15.93,12.5-10.38,0-16.18-6.13-16.18-6.13l4.74-7.27Z"/><path class="cls-1" d="M214.56,0h10.38V17.89c0,2.04-.16,3.51-.16,3.51h.16s3.68-6.05,12.5-6.05c11.28,0,18.47,8.91,18.47,21.82s-8.09,21.82-19.12,21.82c-8.66,0-12.42-6.21-12.42-6.21h-.16s.16,1.23,.16,2.86v2.37h-9.81V0Zm20.43,50.25c5.72,0,10.46-4.66,10.46-12.91s-4.25-13.07-10.38-13.07c-5.39,0-10.46,3.92-10.46,13.16,0,6.46,3.43,12.83,10.38,12.83Z"/><path class="cls-1" d="M284.02,15.36c12.75,0,22.96,9.07,22.96,21.82s-10.21,21.82-22.88,21.82-22.96-8.99-22.96-21.82,10.21-21.82,22.88-21.82Zm.08,34.81c6.7,0,12.34-5.23,12.34-12.99s-5.64-12.99-12.34-12.99-12.42,5.31-12.42,12.99,5.64,12.99,12.42,12.99Z"/><path class="cls-1" d="M315.15,25.25h-5.39v-8.25h5.64V4.98h10.13v12.01h9.48v8.25h-9.48v16.18c0,6.86,5.39,7.84,8.25,7.84,1.14,0,1.88-.16,1.88-.16v9.07s-1.23,.25-3.19,.25c-5.8,0-17.32-1.72-17.32-15.69V25.25Z"/><path class="cls-1" d="M359.51,15.36c12.01,0,18.47,8.74,18.47,19.77,0,1.23-.25,4-.25,4h-28.76c.65,7.27,6.29,11.03,12.5,11.03,6.7,0,12.01-4.58,12.01-4.58l4,7.44s-6.37,5.96-16.75,5.96c-13.81,0-22.39-9.97-22.39-21.82,0-12.83,8.74-21.82,21.16-21.82Zm8.01,16.67c-.16-5.64-3.68-8.66-8.25-8.66-5.31,0-8.99,3.27-9.97,8.66h18.22Z"/><path class="cls-1" d="M384.76,0h10.3V43.47c0,4.58,1.55,5.72,4.25,5.72,.82,0,1.55-.08,1.55-.08v9.07s-1.55,.25-3.27,.25c-5.72,0-12.83-1.47-12.83-13.4V0Z"/><path class="cls-1" d="M406.9,0h10.38V20.1c0,2.04-.16,3.51-.16,3.51h.16c2.04-4,7.11-8.25,14.38-8.25,9.23,0,14.46,4.82,14.46,15.85v26.8h-10.3v-24.68c0-5.07-1.31-8.5-6.62-8.5s-9.72,3.6-11.28,8.66c-.49,1.63-.65,3.43-.65,5.39v19.12h-10.38V0Z"/><path class="cls-1" d="M474.23,15.36c12.75,0,22.96,9.07,22.96,21.82s-10.21,21.82-22.88,21.82-22.96-8.99-22.96-21.82,10.21-21.82,22.88-21.82Zm.08,34.81c6.7,0,12.34-5.23,12.34-12.99s-5.64-12.99-12.34-12.99-12.42,5.31-12.42,12.99,5.64,12.99,12.42,12.99Z"/></g></g></svg>