<?xml version="1.0" encoding="UTF-8"?><svg id="Layer_2" xmlns="http://www.w3.org/2000/svg" viewBox="0 0 205.21 159.24"><defs><style>.cls-1{fill:#eb652d;}</style></defs><g id="Camada_1"><path class="cls-1" d="M9.67,53.85c-3.22-3.69-6.42-7.29-9.67-11.01,.82-.66,1.58-1.28,2.35-1.89C14.51,31.39,26.58,21.78,38.87,12.38c5.11-3.88,10.71-7.16,16.94-9.13,11.34-3.6,22.26,.66,28.03,10.74,3.47,6.04,5.03,12.65,6.28,19.34,2.92,15.33,4.84,30.84,9.23,45.87,1.78,6.12,3.63,12.24,7.18,17.7,.68,1.04,1.47,2.05,2.35,2.95,2.51,2.49,5.3,2.87,8.25,.52,3.28-2.65,6.45-5.55,9.12-8.74,6.94-8.25,12.7-17.21,17.24-26.91,1.97-4.23,3.14-8.66,2.84-13.33-.44-6.77-4.29-10.49-11.36-11.04-5.22-.38-10.27,.49-15.24,1.97-.68,.19-1.34,.41-2.49,.79,1.37-3.36,2.49-6.37,3.82-9.29,3.91-8.55,9.1-16.23,16.61-22.29,7.81-6.31,16.88-9.81,26.99-10.95,6.31-.74,12.62-.93,18.9,.41,10.6,2.24,17.24,8.58,19.89,18.63,3.36,12.7,1.69,25.02-3.5,37.02-5.57,12.89-13.39,24.5-21.99,35.65-11.69,15.19-24.15,29.78-38.46,42.78-8.03,7.32-16.64,13.99-26.58,18.82-5.79,2.81-11.83,4.78-18.39,5.27-7.87,.63-14.1-2.4-19.18-7.89-7.65-8.25-12.05-18.14-15.24-28.66-5.38-17.73-10.87-35.46-16.5-53.13-2.19-6.8-4.92-13.44-9.56-19.15-.96-1.18-2.05-2.27-3.28-3.2-2.54-1.97-5.27-2.4-8.22-.66-4.21,2.46-8.47,4.84-12.89,7.37"/></g></svg>