<?xml version="1.0" encoding="UTF-8"?><svg id="Layer_2" xmlns="http://www.w3.org/2000/svg" viewBox="0 0 182.7 183.58"><defs><style>.cls-1{fill:#eb652d;fill-rule:evenodd;}</style></defs><g id="Camada_1"><path class="cls-1" d="M156.08,26.67C138.9,9.48,116.06,0,91.72,0,41.6,0,.79,40.81,.77,90.95c-.02,16.04,4.17,31.68,12.13,45.49L0,183.58l48.23-12.66c13.28,7.25,28.25,11.06,43.46,11.08h.04c50.14,0,90.95-40.81,90.97-90.97,.02-24.3-9.45-47.16-26.61-64.36Zm-16.03,99.51c-2.06,5.76-11.92,11.02-16.66,11.73-4.25,.64-9.63,.9-15.54-.98-3.58-1.14-8.18-2.65-14.07-5.2-24.75-10.69-40.92-35.61-42.16-37.26-1.23-1.65-10.08-13.38-10.08-25.53s6.37-18.12,8.64-20.59c2.26-2.47,4.94-3.09,6.58-3.09s3.29,.01,4.73,.09c1.52,.08,3.55-.57,5.55,4.24,2.06,4.94,6.99,17.09,7.61,18.32,.62,1.23,1.03,2.68,.21,4.32-.82,1.65-3.5,5.12-6.17,8.44-1.09,1.36-2.52,2.56-1.08,5.04,1.44,2.47,6.39,10.55,13.73,17.09,9.43,8.41,17.38,11.01,19.85,12.25,2.47,1.24,3.91,1.03,5.35-.62,1.44-1.65,6.17-7.21,7.81-9.67,1.64-2.47,3.29-2.06,5.55-1.24,2.26,.82,14.4,6.79,16.86,8.03,2.47,1.24,4.11,1.85,4.73,2.88,.62,1.03,.62,5.97-1.44,11.74Z"/></g></svg>